Patient4_TMGait_0pt5_01_left_27_GRF.mot
version=1
nRows=65
nColumns=19
inDegrees=no
endheader
time	F1x	F1y	F1z	M1x	M1y	M1z	F2x	F2y	F2z	M2x	M2y	M2z	EC1x	EC1y	EC1z	EC2x	EC2y	EC2z
36.04	-13.2127	8.674	-2.5237	-0.92224	-2.6593	5.8443	-51.1472	729.5895	-60.1661	266.7225	74.2754	689.3771	-0.0592	0.0182	-0.0073	-0.0462	0.0165	0.9585
36.0536	-8.8849	6.1698	-1.7146	-0.71837	-1.7905	4.4013	-46.5131	730.7902	-60.345	267.3302	72.8831	689.2773	-0.0592	0.0182	-0.0073	-0.0462	0.0165	0.9585
36.0671	-5.2127	4.0397	-1.0123	-0.5486	-1.0649	3.1506	-42.115	732.4526	-60.2017	268.0992	71.1741	688.8419	-0.0592	0.0182	-0.0073	-0.0462	0.0165	0.9585
36.0807	-2.409	2.419	-0.45981	-0.42737	-0.52327	2.1791	-38.1837	734.8749	-59.7527	269.1393	69.233	688.3291	-0.0592	0.0182	-0.0073	-0.0462	0.0165	0.9585
36.0943	-0.47628	1.315	-0.056692	-0.35836	-0.16642	1.5085	-34.7581	738.2322	-59.1042	270.5286	67.1827	687.9415	-0.0592	0.0182	-0.0073	-0.0462	0.0165	0.9585
36.1079	0.71279	0.65686	0.21541	-0.33531	0.033404	1.101	-31.7369	742.4461	-58.3684	272.2601	65.1143	687.6623	-0.0592	0.0182	-0.0073	-0.0462	0.0165	0.9585
36.1214	1.3213	0.32795	0.38707	-0.33924	0.10981	0.89005	-28.9293	747.1716	-57.6421	274.2336	63.0768	687.2303	-0.0592	0.0182	-0.0073	-0.0462	0.0165	0.9585
36.135	1.5101	0.19922	0.48832	-0.34856	0.096226	0.79488	-26.0957	751.9154	-56.9794	276.2956	61.0595	686.2274	-0.0592	0.0182	-0.0073	-0.0462	0.0165	0.9585
36.1486	1.4318	0.13991	0.54527	-0.33997	0.025847	0.71672	-22.999	756.2167	-56.3874	278.3043	59.0053	684.2347	-0.0592	0.0182	-0.0073	-0.0462	0.0165	0.9585
36.1621	1.1983	0.043305	0.58348	-0.29151	-0.084062	0.58227	-19.4546	759.8175	-55.818	280.1901	56.8197	681.0194	-0.0592	0.0182	-0.0073	-0.0462	0.0165	0.9585
36.1757	0.89977	-0.18886	0.61058	-0.18042	-0.20912	0.30269	-15.3383	762.7438	-55.1866	281.9806	54.3886	676.619	-0.0592	0.0182	-0.0073	-0.0462	0.0165	0.9585
36.1893	0.59941	-0.64449	0.63522	0.018101	-0.33584	-0.19776	-10.6191	765.2761	-54.413	283.781	51.6324	671.3464	-0.0592	0.0182	-0.0073	-0.0462	0.0165	0.9585
36.2029	0.3542	-1.3856	0.64699	0.32133	-0.43521	-0.97487	-5.3676	767.7958	-53.4626	285.7112	48.5456	665.665	-0.0592	0.0182	-0.0073	-0.0462	0.0165	0.9585
36.2164	0.22501	-2.4402	0.6503	0.73454	-0.48814	-2.0574	0.21479	770.5883	-52.3782	287.8294	45.2304	660.0246	-0.0592	0.0182	-0.0073	-0.0462	0.0165	0.9585
36.23	0.26622	-3.7594	0.62145	1.2382	-0.44691	-3.3935	5.8194	773.6506	-51.2789	290.0634	41.8885	654.6849	-0.0592	0.0182	-0.0073	-0.0462	0.0165	0.9585
36.2436	0.54304	-5.1929	0.54699	1.7782	-0.26844	-4.8423	11.0821	776.6143	-50.3338	292.1896	38.7813	649.6224	-0.0592	0.0182	-0.0073	-0.0462	0.0165	0.9585
36.2571	1.1429	-6.4203	0.39345	2.2392	0.11191	-6.0934	15.6408	778.8801	-49.7042	293.899	36.1636	644.6224	-0.0592	0.0182	-0.0073	-0.0462	0.0165	0.9585
36.2707	2.1554	-6.9188	0.13795	2.4286	0.74921	-6.6296	19.2605	779.8175	-49.4962	294.8883	34.2074	639.3845	-0.0592	0.0182	-0.0073	-0.0462	0.0165	0.9585
36.2843	3.6487	-5.9241	-0.25954	2.0629	1.708	-5.6905	21.8763	778.9342	-49.7216	294.9346	32.9497	633.627	-0.0592	0.0182	-0.0073	-0.0462	0.0165	0.9585
36.2979	5.6226	-2.4057	-0.82654	0.7594	3.0124	-2.229	23.5972	775.9099	-50.3131	293.9146	32.3001	627.0999	-0.0592	0.0182	-0.0073	-0.0462	0.0165	0.9585
36.3114	7.972	4.8874	-1.5748	-1.9476	4.625	5.0308	24.6684	770.5683	-51.1536	291.7905	32.0791	619.5709	-0.0592	0.0182	-0.0073	-0.0462	0.0165	0.9585
36.325	10.3928	17.2973	-2.4682	-6.5555	6.3871	17.4708	25.3744	762.823	-52.0944	288.5794	32.0679	610.8219	-0.0592	0.0182	-0.0073	-0.0462	0.0165	0.9585
36.3386	12.3048	35.9834	-3.3944	-13.4925	7.9604	36.3022	25.9697	752.599	-52.9754	284.3139	32.0524	600.6192	-0.0592	0.0182	-0.0073	-0.0462	0.0165	0.9585
36.3521	12.8483	61.5563	-4.1686	-22.9796	8.8303	62.1929	26.6271	739.7776	-53.6309	279.0104	31.8487	588.7098	-0.0592	0.0182	-0.0073	-0.0462	0.0165	0.9585
36.3657	11.1575	93.7151	-4.5346	-34.8964	8.4157	94.8962	27.4251	724.1169	-53.896	272.6351	31.3165	574.7718	-0.0592	0.0182	-0.0073	-0.0462	0.0165	0.9585
36.3793	7.1301	131.1399	-4.1574	-48.7343	6.3379	133.0891	28.3574	705.2525	-53.6237	265.0997	30.365	558.4233	-0.0592	0.0182	-0.0073	-0.0462	0.0165	0.9585
36.3929	1.629	171.1769	-2.6173	-63.4795	2.4928	174.0007	29.3668	682.763	-52.7045	256.2826	28.9546	539.2766	-0.0592	0.0182	-0.0073	-0.0462	0.0165	0.9585
36.4064	-4.1876	209.9635	0.455	-77.7011	-3.0248	213.5102	30.3767	656.2467	-51.1063	246.0564	27.1124	516.9869	-0.0592	0.0182	-0.0073	-0.0462	0.0165	0.9585
36.42	-9.4418	245.1458	4.6428	-90.5588	-9.4153	249.0333	31.2995	625.5172	-48.8644	234.3541	24.9089	491.4177	-0.0592	0.0182	-0.0073	-0.0462	0.0165	0.9585
36.4336	-13.7453	276.8992	9.3112	-102.1589	-15.8519	280.6477	32.0657	590.7028	-46.0972	221.209	22.4571	462.7083	-0.0592	0.0182	-0.0073	-0.0462	0.0165	0.9585
36.4471	-16.9866	306.8606	13.865	-113.1424	-21.6736	309.9569	32.6239	552.1394	-42.9428	206.7247	19.8665	431.1704	-0.0592	0.0182	-0.0073	-0.0462	0.0165	0.9585
36.4607	-19.1949	336.9366	17.9373	-124.2243	-26.5106	338.8427	32.8928	510.1892	-39.4746	191.0188	17.2066	397.144	-0.0592	0.0182	-0.0073	-0.0462	0.0165	0.9585
36.4743	-20.4629	368.5952	21.3612	-135.9275	-30.238	368.7662	32.7346	465.1785	-35.7013	174.1987	14.5204	360.951	-0.0592	0.0182	-0.0073	-0.0462	0.0165	0.9585
36.4879	-20.9914	402.6332	24.2866	-148.4904	-33.0886	400.5552	31.9731	417.4457	-31.6505	156.378	11.8802	322.9148	-0.0592	0.0182	-0.0073	-0.0462	0.0165	0.9585
36.5014	-21.0423	439.1879	27.0367	-161.886	-35.4933	434.4087	30.4185	367.4835	-27.3995	137.7263	9.3989	283.4657	-0.0592	0.0182	-0.0073	-0.0462	0.0165	0.9585
36.515	-20.8752	477.9055	30.1153	-175.8996	-38.0523	470.0589	27.93	316.0795	-23.0992	118.5229	7.2289	243.2361	-0.0592	0.0182	-0.0073	-0.0462	0.0165	0.9585
36.5286	-20.6995	518.2616	33.9083	-190.2725	-41.2272	507.0375	24.4759	264.4334	-18.9309	99.205	5.4947	203.1424	-0.0592	0.0182	-0.0073	-0.0462	0.0165	0.9585
36.5421	-20.7103	559.7161	38.65	-204.7675	-45.3243	544.8631	20.1962	214.1578	-15.0856	80.3707	4.2688	164.381	-0.0592	0.0182	-0.0073	-0.0462	0.0165	0.9585
36.5557	-21.0183	601.6579	44.2423	-219.164	-50.302	582.9645	15.4429	167.0615	-11.6984	62.7019	3.5129	128.258	-0.0592	0.0182	-0.0073	-0.0462	0.0165	0.9585
36.5693	-21.6316	643.2673	50.3413	-233.1984	-55.8494	620.5674	10.7053	124.8065	-8.8357	46.8315	3.099	95.9566	-0.0592	0.0182	-0.0073	-0.0462	0.0165	0.9585
36.5829	-22.4855	683.3506	56.4347	-246.4911	-61.4651	656.5271	6.4536	88.5611	-6.4689	33.2121	2.8434	68.2931	-0.0592	0.0182	-0.0073	-0.0462	0.0165	0.9585
36.5964	-23.4613	720.3404	62.0728	-258.5304	-66.684	689.3468	2.9926	58.8903	-4.5395	22.0673	2.6062	45.6629	-0.0592	0.0182	-0.0073	-0.0462	0.0165	0.9585
36.61	-24.4075	752.5237	66.9242	-268.7467	-71.1358	717.4013	0.45809	35.8302	-2.9837	13.4154	2.3012	28.0868	-0.0592	0.0182	-0.0073	-0.0462	0.0165	0.9585
36.6236	-25.1313	778.2885	70.8414	-276.6008	-74.6139	739.1715	-1.1116	18.987	-1.7716	7.1065	1.9032	15.2562	-0.0592	0.0182	-0.0073	-0.0462	0.0165	0.9585
36.6371	-25.4598	796.4208	73.7352	-281.6951	-76.9827	753.5347	-1.8405	7.6608	-0.87486	2.8712	1.4379	6.6363	-0.0592	0.0182	-0.0073	-0.0462	0.0165	0.9585
36.6507	-25.249	806.3343	75.5777	-283.8594	-78.1786	759.9688	-1.9974	0.86887	-0.27429	0.33684	0.99698	1.4654	-0.0592	0.0182	-0.0073	-0.0462	0.0165	0.9585
36.6643	-24.3886	808.2429	76.3704	-283.2111	-78.1751	758.7062	-1.824	-2.5376	0.08719	-0.92977	0.62903	-1.1364	-0.0592	0.0182	-0.0073	-0.0462	0.0165	0.9585
36.6779	-22.8459	803.1475	76.1909	-280.1454	-77.0344	750.7151	-1.5	-3.6532	0.27072	-1.339	0.35175	-1.9993	-0.0592	0.0182	-0.0073	-0.0462	0.0165	0.9585
36.6914	-20.6518	792.6367	75.1877	-275.2599	-74.9061	737.4927	-1.136	-3.3973	0.33788	-1.2337	0.15608	-1.8276	-0.0592	0.0182	-0.0073	-0.0462	0.0165	0.9585
36.705	-17.9107	778.6435	73.5537	-269.263	-72.0039	720.8572	-0.80727	-2.4427	0.33231	-0.86724	0.034011	-1.1261	-0.0592	0.0182	-0.0073	-0.0462	0.0165	0.9585
36.7186	-14.7649	763.2047	71.4976	-262.8905	-68.5713	702.7076	-0.53877	-1.2537	0.28944	-0.41232	-0.03403	-0.2501	-0.0592	0.0182	-0.0073	-0.0462	0.0165	0.9585
36.7321	-11.3949	748.2438	69.2076	-256.8311	-64.8445	684.8304	-0.34356	-0.10447	0.22902	0.027543	-0.05949	0.59754	-0.0592	0.0182	-0.0073	-0.0462	0.0165	0.9585
36.7457	-7.9694	735.3968	66.8532	-251.6662	-61.0413	668.7341	-0.21515	0.87073	0.1715	0.40188	-0.060849	1.3138	-0.0592	0.0182	-0.0073	-0.0462	0.0165	0.9585
36.7593	-4.626	725.8708	64.5464	-247.8218	-57.3162	655.5157	-0.13901	1.6301	0.1172	0.69501	-0.043163	1.863	-0.0592	0.0182	-0.0073	-0.0462	0.0165	0.9585
36.7729	-1.4484	720.3683	62.3766	-245.5427	-53.7845	645.7876	-0.10841	2.1912	0.071342	0.9117	-0.014763	2.2674	-0.0592	0.0182	-0.0073	-0.0462	0.0165	0.9585
36.7864	1.5536	719.0658	60.3818	-244.8878	-50.4901	639.6625	-0.1071	2.5849	0.02921	1.0629	0.023833	2.5453	-0.0592	0.0182	-0.0073	-0.0462	0.0165	0.9585
36.8	4.4289	721.6427	58.6097	-245.737	-47.4617	636.813	-0.13472	2.8508	-0.0051549	1.1631	0.068532	2.7278	-0.0592	0.0182	-0.0073	-0.0462	0.0165	0.9585
36.8136	7.2853	727.3722	57.0764	-247.823	-44.6805	636.557	-0.18082	3.0062	-0.036057	1.2198	0.12497	2.8301	-0.0592	0.0182	-0.0073	-0.0462	0.0165	0.9585
36.8271	10.2332	735.2669	55.8141	-250.78	-42.1368	638.0171	-0.23923	3.0451	-0.059919	1.2318	0.19267	2.8445	-0.0592	0.0182	-0.0073	-0.0462	0.0165	0.9585
36.8407	13.3924	744.2274	54.8289	-254.1994	-39.7923	640.2325	-0.30794	2.9425	-0.077744	1.1875	0.26714	2.7363	-0.0592	0.0182	-0.0073	-0.0462	0.0165	0.9585
36.8543	16.8323	753.1539	54.1385	-257.6681	-37.633	642.2805	-0.37719	2.6376	-0.089219	1.0618	0.33588	2.4304	-0.0592	0.0182	-0.0073	-0.0462	0.0165	0.9585
36.8679	20.5725	761.0835	53.7368	-260.8173	-35.6421	643.395	-0.44044	2.0453	-0.095917	0.81953	0.38555	1.8316	-0.0592	0.0182	-0.0073	-0.0462	0.0165	0.9585
36.8814	24.5702	767.305	53.6063	-263.3637	-33.8187	643.0589	-0.47854	1.0603	-0.098095	0.41917	0.40267	0.82478	-0.0592	0.0182	-0.0073	-0.0462	0.0165	0.9585
36.895	28.687	771.3895	53.7168	-265.1219	-32.1821	641.0295	-0.47265	-0.39999	-0.094467	-0.17362	0.38067	-0.6744	-0.0592	0.0182	-0.0073	-0.0462	0.0165	0.9585
36.9086	32.7542	773.1754	54.0419	-266.0008	-30.762	637.2888	-0.38917	-2.3657	-0.084344	-0.97177	0.30868	-2.7032	-0.0592	0.0182	-0.0073	-0.0462	0.0165	0.9585
